<svg width="166" xmlns="http://www.w3.org/2000/svg" height="166" fill="none"><g data-testid="UPC: Isky Parody"><defs><clipPath id="a" class="frame-clip frame-clip-def"><rect rx="0" ry="0" width="166" height="166"/></clipPath></defs><g clip-path="url(#a)"><g class="fills"><rect rx="0" ry="0" width="166" height="166" class="frame-background"/></g><g class="frame-children"><circle cx="83" cy="83" style="fill: rgb(0, 0, 0); fill-opacity: 1;" r="79.745" class="fills" data-testid="Ellipse"/><g data-testid="Group"><rect rx="0" ry="0" x="82.478" y="63.34" width="1.08" height="42.28" style="fill: rgb(0, 255, 247); fill-opacity: 1;" class="fills" data-testid="Rectangle"/><g data-testid="Group"><path d="m85.28 107.002-2.304-3.083-2.304 3.083h4.608Zm.971 1.299h-6.55l-2.428 3.248h11.406l-2.428-3.248Zm3.399 4.548H76.302l-1.943 2.598h17.234l-1.943-2.598Zm2.914 3.897H73.388l-.39.523v5.324h19.956v-5.324l-.39-.523Zm.39 7.146H72.998v2.599h19.956v-2.599Zm0 3.898H72.998v1.949h19.956v-1.949Zm0 3.248H72.998v2.599h19.956v-2.599Zm0 3.898H72.998v10.394h19.956v-10.394Zm-19.956 11.693v10.688h19.956v-10.688H72.998Z" style="fill: rgb(249, 250, 255); fill-opacity: 1;" class="fills" data-testid="Difference"/><g data-testid="Path"><path d="m72.985 119.995-2.59-.65-1.294-1.949h-3.238l.648 3.248 3.237 1.949h3.237v-2.598Z" style="fill: rgb(0, 0, 0); fill-opacity: 1;" class="fills"/><g class="strokes"><g class="inner-stroke-shape"><defs><clipPath id="d"><use href="#c"/></clipPath><path d="m72.985 119.995-2.59-.65-1.294-1.949h-3.238l.648 3.248 3.237 1.949h3.237v-2.598Z" id="c" style="fill: none; stroke-width: 0.8; stroke: rgb(0, 255, 255); stroke-opacity: 1;"/></defs><use href="#c" clip-path="url('#d')"/></g></g></g><g data-testid="Path"><path d="m93.056 119.995 2.589-.65 1.295-1.949h3.237l-.647 3.248-3.237 1.949h-3.237v-2.598Z" style="fill: rgb(0, 0, 0); fill-opacity: 1;" class="fills"/><g class="strokes"><g class="inner-stroke-shape"><defs><clipPath id="f"><use href="#e"/></clipPath><path d="m93.056 119.995 2.589-.65 1.295-1.949h3.237l-.647 3.248-3.237 1.949h-3.237v-2.598Z" id="e" style="fill: none; stroke-width: 0.8; stroke: rgb(0, 255, 255); stroke-opacity: 1;"/></defs><use href="#e" clip-path="url('#f')"/></g></g></g></g><g data-testid="Group"><path d="m80.761 62.47 2.304 3.083 2.304-3.083h-4.608Zm-.971-1.299h6.55l2.428-3.248H77.362l2.428 3.248Zm-3.399-4.548h13.348l1.942-2.598H74.448l1.943 2.598Zm-2.914-3.897h19.176l.39-.523v-5.324H73.087v5.324l.39.523Zm-.39-7.146h19.956v-2.599H73.087v2.599Zm0-3.898h19.956v-1.949H73.087v1.949Zm0-3.248h19.956v-2.599H73.087v2.599Zm0-3.898h19.956V24.142H73.087v10.394Zm19.956-11.693V12.155H73.087v10.688h19.956Z" style="fill: rgb(249, 250, 255); fill-opacity: 1;" class="fills" data-testid="Difference"/><g data-testid="Path"><path d="m93.056 49.477 2.589.65 1.295 1.949h3.237l-.647-3.248-3.237-1.949h-3.237v2.598Z" style="fill: rgb(0, 0, 0); fill-opacity: 1;" class="fills"/><g class="strokes"><g class="inner-stroke-shape"><defs><clipPath id="h"><use href="#g"/></clipPath><path d="m93.056 49.477 2.589.65 1.295 1.949h3.237l-.647-3.248-3.237-1.949h-3.237v2.598Z" id="g" style="fill: none; stroke-width: 0.8; stroke: rgb(0, 255, 255); stroke-opacity: 1;"/></defs><use href="#g" clip-path="url('#h')"/></g></g></g><g data-testid="Path"><path d="m72.985 49.477-2.59.65-1.294 1.949h-3.238l.648-3.248 3.237-1.949h3.237v2.598Z" style="fill: rgb(0, 0, 0); fill-opacity: 1;" class="fills"/><g class="strokes"><g class="inner-stroke-shape"><defs><clipPath id="j"><use href="#i"/></clipPath><path d="m72.985 49.477-2.59.65-1.294 1.949h-3.238l.648-3.248 3.237-1.949h3.237v2.598Z" id="i" style="fill: none; stroke-width: 0.8; stroke: rgb(0, 255, 255); stroke-opacity: 1;"/></defs><use href="#i" clip-path="url('#j')"/></g></g></g></g><g data-testid="Group"><g data-testid="Group"><rect rx="0" ry="0" x="84.087" y="45.353" transform="rotate(-62.614 84.512 84.354) skewX(-.159)" width="1.083" height="78.388" style="fill: rgb(0, 255, 247); fill-opacity: 1;" class="fills" data-testid="Rectangle"/><path d="m47.986 67.702 3.805-.52-1.563-3.52-2.242 4.04Zm-1.604.219 3.187-5.742-1.647-3.709-5.549 10 4.009-.549Zm-5.613.768 6.494-11.702-1.318-2.967-8.383 15.107 3.207-.438Zm-4.811.658 9.328-16.811-.265-.596-4.636-2.59-9.708 17.495 4.636 2.59.645-.088Zm-6.412-3.134 9.708-17.495-2.263-1.264-9.708 17.495 2.263 1.264Zm-3.394-1.896 9.708-17.495-1.697-.948-9.708 17.495 1.697.948Zm-2.829-1.581 9.708-17.494-2.262-1.265-9.708 17.495 2.262 1.264Zm-3.394-1.896 9.708-17.495-4.593-1.792-9.064 16.89 3.949 2.397ZM121.096 101.031l-3.805.52 1.563 3.519 2.242-4.039Zm1.604-.22-3.187 5.743 1.647 3.708 5.549-9.999-4.009.548Zm5.613-.767-6.494 11.702 1.318 2.967 8.383-15.108-3.207.439Zm4.811-.658-9.328 16.81.265.596 4.636 2.591 9.708-17.495-4.636-2.591-.645.089Zm6.412 3.134-9.708 17.495 2.263 1.264 9.708-17.495-2.263-1.264Zm3.394 1.896-9.708 17.495 1.697.948 9.708-17.495-1.697-.948Zm2.829 1.58-9.709 17.495 2.263 1.264 9.708-17.495-2.262-1.264Zm3.393 1.896-9.708 17.495 4.594 1.793 9.064-16.891-3.95-2.397Z" style="fill: rgb(249, 250, 255); fill-opacity: 1;" class="fills" data-testid="Difference"/></g><g data-testid="Group"><rect rx="0" ry="0" x="82.656" y="44.338" transform="rotate(-117.346 83.314 83.602) skewX(.159)" width="1.083" height="78.388" style="fill: rgb(0, 255, 247); fill-opacity: 1;" class="fills" data-testid="Rectangle"/><path d="m48.39 103.922 1.764-3.423-3.768-.741 2.004 4.164Zm-.744 1.442-2.849-5.918-3.971-.781 4.961 10.306 1.859-3.607Zm-2.602 5.049-5.806-12.06-3.177-.625 7.496 15.57 1.487-2.885Zm-2.231 4.328-8.34-17.325-.639-.126-4.778 2.316 8.68 18.031 4.778-2.316.299-.58Zm-6.243 3.461-8.68-18.031-2.332 1.131 8.68 18.03 2.332-1.13Zm-3.498 1.695-8.68-18.03-1.749.847 8.68 18.031 1.749-.848Zm-2.915 1.413-8.68-18.03-2.332 1.13 8.681 18.03 2.331-1.13Zm-3.497 1.696-8.681-18.031-4.103 2.739 8.558 17.155 4.226-1.863ZM117.61 63.078l-1.764 3.423 3.768.741-2.004-4.164Zm.744-1.442 2.849 5.918 3.971.781-4.961-10.306-1.859 3.607Zm2.602-5.049 5.806 12.06 3.177.625-7.496-15.57-1.487 2.885Zm2.231-4.328 8.34 17.325.639.126 4.778-2.316-8.68-18.031-4.778 2.316-.299.58Zm6.243-3.461 8.68 18.031 2.332-1.131-8.68-18.03-2.332 1.13Zm3.498-1.695 8.68 18.03 1.749-.847-8.68-18.031-1.749.848Zm2.915-1.413 8.68 18.03 2.332-1.13-8.681-18.03-2.331 1.13Zm3.497-1.696 8.681 18.031 4.103-2.739-8.558-17.155-4.226 1.863Z" style="fill: rgb(249, 250, 255); fill-opacity: 1;" class="fills" data-testid="Difference"/></g></g><ellipse cx="83.035" cy="83.569" rx="10.035" ry="10.069" style="fill: rgb(0, 255, 247); fill-opacity: 1;" class="fills" data-testid="Ellipse"/></g><path d="M83 6.51c42.216 0 76.49 34.274 76.49 76.49 0 42.216-34.274 76.49-76.49 76.49-42.216 0-76.49-34.274-76.49-76.49C6.51 40.784 40.784 6.51 83 6.51Zm0 6.51c-38.623 0-69.98 31.357-69.98 69.98 0 38.623 31.357 69.98 69.98 69.98 38.623 0 69.98-31.357 69.98-69.98 0-38.623-31.357-69.98-69.98-69.98Z" style="fill: rgb(0, 255, 247); fill-opacity: 1;" class="fills" data-testid="Difference"/></g></g></g></svg>